<mxfile host="Electron" modified="2024-03-05T06:18:36.653Z" agent="Mozilla/5.0 (Windows NT 10.0; Win64; x64) AppleWebKit/537.36 (KHTML, like Gecko) draw.io/23.0.2 Chrome/120.0.6099.109 Electron/28.1.0 Safari/537.36" etag="V3-JNNAkGwtpWYG_xPa-" version="23.0.2" type="device" pages="2">
  <diagram id="dXWerdTdvnyr99ysqxI7" name="Activity diagram (ticket booking)">
    <mxGraphModel dx="3502" dy="1593" grid="1" gridSize="10" guides="1" tooltips="1" connect="1" arrows="1" fold="1" page="1" pageScale="1" pageWidth="1169" pageHeight="827" math="0" shadow="0">
      <root>
        <mxCell id="0" />
        <mxCell id="1" parent="0" />
        <mxCell id="VLxzZCNXBG5b-8nyeCsH-1" value="" style="rounded=0;whiteSpace=wrap;html=1;strokeWidth=2;fillColor=default;movable=1;resizable=1;rotatable=1;deletable=1;editable=1;locked=0;connectable=1;" vertex="1" parent="1">
          <mxGeometry x="-1160" y="50" width="1140" height="1190" as="geometry" />
        </mxCell>
        <mxCell id="rQGK2OHic0l8yQYHyBM8-1" value="&lt;b style=&quot;font-size: 14px;&quot;&gt;Administrator&lt;br style=&quot;font-size: 14px;&quot;&gt;(Администратор)&lt;/b&gt;" style="rounded=0;whiteSpace=wrap;html=1;strokeWidth=2;fillColor=#cce5ff;strokeColor=#36393d;fontSize=14;movable=0;resizable=0;rotatable=0;deletable=0;editable=0;locked=1;connectable=0;" vertex="1" parent="1">
          <mxGeometry x="-1130" y="80" width="540" height="41.16" as="geometry" />
        </mxCell>
        <mxCell id="rQGK2OHic0l8yQYHyBM8-2" value="" style="rounded=0;whiteSpace=wrap;html=1;strokeWidth=2;fillColor=none;movable=1;resizable=1;rotatable=1;deletable=1;editable=1;locked=0;connectable=1;" vertex="1" parent="1">
          <mxGeometry x="-1130" y="121.16" width="540" height="1108.84" as="geometry" />
        </mxCell>
        <mxCell id="WKXUpvdwrwkDvEALhGxE-1" value="&lt;b style=&quot;font-size: 14px;&quot;&gt;System&lt;br style=&quot;font-size: 14px;&quot;&gt;(Система)&lt;/b&gt;" style="rounded=0;whiteSpace=wrap;html=1;strokeWidth=2;fillColor=#cce5ff;strokeColor=#36393d;fontSize=14;movable=0;resizable=0;rotatable=0;deletable=0;editable=0;locked=1;connectable=0;" vertex="1" parent="1">
          <mxGeometry x="-590" y="80" width="540" height="41.16" as="geometry" />
        </mxCell>
        <mxCell id="XVttaBHDy1a8d6RX7nSS-2" value="&lt;b style=&quot;border-color: var(--border-color); font-size: 12px;&quot;&gt;&lt;font style=&quot;border-color: var(--border-color); font-size: 20px;&quot;&gt;Activity diagram (диаграмма деятельности)&lt;/font&gt;&lt;/b&gt;" style="rounded=0;whiteSpace=wrap;html=1;strokeWidth=2;fillColor=#cce5ff;strokeColor=#36393d;fontSize=14;movable=0;resizable=0;rotatable=0;deletable=0;editable=0;locked=1;connectable=0;" vertex="1" parent="1">
          <mxGeometry x="-1160" y="8.84" width="1140" height="41.16" as="geometry" />
        </mxCell>
        <mxCell id="7iWKZInAip7GX-W-fHIS-1" value="" style="rounded=0;whiteSpace=wrap;html=1;strokeWidth=2;fillColor=none;movable=1;resizable=1;rotatable=1;deletable=1;editable=1;locked=0;connectable=1;" vertex="1" parent="1">
          <mxGeometry x="-590" y="121.16" width="540" height="1108.84" as="geometry" />
        </mxCell>
        <mxCell id="YkJNnSO2keDLzvd2aEsg-1" value="" style="group" vertex="1" connectable="0" parent="1">
          <mxGeometry x="-880" y="160" width="40" height="70" as="geometry" />
        </mxCell>
        <mxCell id="YkJNnSO2keDLzvd2aEsg-2" value="" style="ellipse;html=1;shape=startState;fillColor=#cce5ff;strokeColor=#000000;strokeWidth=2;" vertex="1" parent="YkJNnSO2keDLzvd2aEsg-1">
          <mxGeometry width="40" height="38.888888888888886" as="geometry" />
        </mxCell>
        <mxCell id="YkJNnSO2keDLzvd2aEsg-3" value="" style="edgeStyle=orthogonalEdgeStyle;html=1;verticalAlign=bottom;endArrow=open;endSize=8;strokeColor=#000000;fillColor=#cce5ff;strokeWidth=2;" edge="1" parent="YkJNnSO2keDLzvd2aEsg-1" source="YkJNnSO2keDLzvd2aEsg-2">
          <mxGeometry relative="1" as="geometry">
            <mxPoint x="20" y="77.77777777777777" as="targetPoint" />
            <Array as="points">
              <mxPoint x="20" y="70" />
            </Array>
          </mxGeometry>
        </mxCell>
        <mxCell id="lJ9nguNClyCKv0JRS1BN-1" style="edgeStyle=orthogonalEdgeStyle;rounded=0;orthogonalLoop=1;jettySize=auto;html=1;exitX=1;exitY=0.5;exitDx=0;exitDy=0;strokeWidth=2;" edge="1" parent="1" source="2JtAAeio9qDW8wkmjjva-1" target="IRf_SnaEU_VNCFIc58s1-1">
          <mxGeometry relative="1" as="geometry" />
        </mxCell>
        <mxCell id="2JtAAeio9qDW8wkmjjva-1" value="Ввод данных для поиска&lt;br style=&quot;border-color: var(--border-color); font-size: 12px;&quot;&gt;&lt;span style=&quot;border-color: var(--border-color); font-size: 12px;&quot;&gt;(пункт отправления, пункт назначения, дата)&lt;/span&gt;" style="rounded=1;whiteSpace=wrap;html=1;strokeWidth=2;fillColor=#eeeeee;strokeColor=#36393d;fontFamily=Helvetica;fontSize=12;" vertex="1" parent="1">
          <mxGeometry x="-980" y="240" width="240" height="60" as="geometry" />
        </mxCell>
        <mxCell id="FjpX9mGm8ldbOzVhmVrd-1" style="edgeStyle=orthogonalEdgeStyle;rounded=0;orthogonalLoop=1;jettySize=auto;html=1;exitX=0.5;exitY=1;exitDx=0;exitDy=0;entryX=0.5;entryY=0;entryDx=0;entryDy=0;strokeWidth=2;" edge="1" parent="1" source="IRf_SnaEU_VNCFIc58s1-1" target="c04mZjWo3hcD_6zjpPom-1">
          <mxGeometry relative="1" as="geometry" />
        </mxCell>
        <mxCell id="IRf_SnaEU_VNCFIc58s1-1" value="&lt;span style=&quot;font-size: 12px;&quot;&gt;Отображение доступных рейсов&lt;/span&gt;&lt;br style=&quot;border-color: var(--border-color); font-size: 12px;&quot;&gt;&lt;span style=&quot;font-size: 12px;&quot;&gt;в соответствии с запросом&lt;/span&gt;" style="rounded=1;whiteSpace=wrap;html=1;strokeWidth=2;fillColor=#eeeeee;strokeColor=#36393d;fontFamily=Helvetica;fontSize=12;" vertex="1" parent="1">
          <mxGeometry x="-440" y="240" width="240" height="60" as="geometry" />
        </mxCell>
        <mxCell id="InTJsULqTaujC0JJsAo2-2" style="edgeStyle=orthogonalEdgeStyle;rounded=0;orthogonalLoop=1;jettySize=auto;html=1;exitX=1;exitY=0.5;exitDx=0;exitDy=0;entryX=0;entryY=0.5;entryDx=0;entryDy=0;strokeWidth=2;" edge="1" parent="1" source="c04mZjWo3hcD_6zjpPom-1" target="InTJsULqTaujC0JJsAo2-1">
          <mxGeometry relative="1" as="geometry" />
        </mxCell>
        <mxCell id="c04mZjWo3hcD_6zjpPom-1" value="Выбор желаемого рейса" style="rounded=1;whiteSpace=wrap;html=1;strokeWidth=2;fillColor=#eeeeee;strokeColor=#36393d;fontFamily=Helvetica;fontSize=12;" vertex="1" parent="1">
          <mxGeometry x="-980" y="380" width="240" height="60" as="geometry" />
        </mxCell>
        <mxCell id="2mcc6Njfw2AzFl7BPUf1-2" style="edgeStyle=orthogonalEdgeStyle;rounded=0;orthogonalLoop=1;jettySize=auto;html=1;exitX=0.5;exitY=1;exitDx=0;exitDy=0;entryX=0.5;entryY=0;entryDx=0;entryDy=0;strokeWidth=2;" edge="1" parent="1" source="InTJsULqTaujC0JJsAo2-1" target="2mcc6Njfw2AzFl7BPUf1-1">
          <mxGeometry relative="1" as="geometry" />
        </mxCell>
        <mxCell id="InTJsULqTaujC0JJsAo2-1" value="&lt;div style=&quot;text-align: center;&quot;&gt;&lt;span style=&quot;text-align: left; background-color: initial;&quot;&gt;Проверка&lt;/span&gt;&lt;span style=&quot;color: rgb(13, 13, 13); text-align: left; background-color: initial;&quot;&gt; наличия&lt;/span&gt;&lt;/div&gt;&lt;span style=&quot;border-color: var(--border-color); font-size: 12px; color: rgb(13, 13, 13); text-align: left;&quot;&gt;свободных мест на выбранном рейсе&lt;/span&gt;" style="rounded=1;whiteSpace=wrap;html=1;strokeWidth=2;fillColor=#eeeeee;strokeColor=#36393d;fontFamily=Helvetica;fontSize=12;" vertex="1" parent="1">
          <mxGeometry x="-440" y="380" width="240" height="60" as="geometry" />
        </mxCell>
        <mxCell id="xFGUhZXYVqVBnA-bLa13-5" style="edgeStyle=orthogonalEdgeStyle;rounded=0;orthogonalLoop=1;jettySize=auto;html=1;exitX=0;exitY=0.5;exitDx=0;exitDy=0;entryX=0.5;entryY=0;entryDx=0;entryDy=0;strokeWidth=2;" edge="1" parent="1" source="2mcc6Njfw2AzFl7BPUf1-1" target="xFGUhZXYVqVBnA-bLa13-1">
          <mxGeometry relative="1" as="geometry" />
        </mxCell>
        <mxCell id="JBeaKy9BQWyiFkUDcgBo-1" style="edgeStyle=orthogonalEdgeStyle;rounded=0;orthogonalLoop=1;jettySize=auto;html=1;exitX=1;exitY=0.5;exitDx=0;exitDy=0;entryX=1;entryY=0.5;entryDx=0;entryDy=0;strokeWidth=2;" edge="1" parent="1" source="2mcc6Njfw2AzFl7BPUf1-1" target="IRf_SnaEU_VNCFIc58s1-1">
          <mxGeometry relative="1" as="geometry">
            <Array as="points">
              <mxPoint x="-120" y="500" />
              <mxPoint x="-120" y="270" />
            </Array>
          </mxGeometry>
        </mxCell>
        <mxCell id="2mcc6Njfw2AzFl7BPUf1-1" value="" style="rhombus;whiteSpace=wrap;html=1;strokeWidth=2;fillColor=#eeeeee;strokeColor=#36393d;" vertex="1" parent="1">
          <mxGeometry x="-350" y="480.00000000000006" width="60" height="40" as="geometry" />
        </mxCell>
        <mxCell id="hkYBtvr36WI65C7XkoZr-2" style="edgeStyle=orthogonalEdgeStyle;rounded=0;orthogonalLoop=1;jettySize=auto;html=1;exitX=0;exitY=0.5;exitDx=0;exitDy=0;entryX=1;entryY=0.5;entryDx=0;entryDy=0;strokeWidth=2;" edge="1" parent="1" source="xFGUhZXYVqVBnA-bLa13-1" target="hkYBtvr36WI65C7XkoZr-1">
          <mxGeometry relative="1" as="geometry" />
        </mxCell>
        <mxCell id="xFGUhZXYVqVBnA-bLa13-1" value="&lt;font style=&quot;font-size: 12px;&quot;&gt;Отображение доступных мест&lt;br style=&quot;border-color: var(--border-color);&quot;&gt;на выбранным рейсом&lt;/font&gt;" style="rounded=1;whiteSpace=wrap;html=1;strokeWidth=2;fillColor=#eeeeee;strokeColor=#36393d;fontFamily=Helvetica;fontSize=12;" vertex="1" parent="1">
          <mxGeometry x="-560" y="560" width="240" height="60" as="geometry" />
        </mxCell>
        <mxCell id="hWQmOL_IoWnCO6vGNyBf-1" value="[места есть]" style="text;html=1;strokeColor=none;fillColor=none;align=center;verticalAlign=middle;whiteSpace=wrap;rounded=0;" vertex="1" parent="1">
          <mxGeometry x="-440" y="470" width="90" height="30" as="geometry" />
        </mxCell>
        <mxCell id="hWQmOL_IoWnCO6vGNyBf-2" value="[мест нет]" style="text;html=1;strokeColor=none;fillColor=none;align=center;verticalAlign=middle;whiteSpace=wrap;rounded=0;" vertex="1" parent="1">
          <mxGeometry x="-290" y="470" width="90" height="30" as="geometry" />
        </mxCell>
        <mxCell id="hkYBtvr36WI65C7XkoZr-4" style="edgeStyle=orthogonalEdgeStyle;rounded=0;orthogonalLoop=1;jettySize=auto;html=1;exitX=0.5;exitY=1;exitDx=0;exitDy=0;entryX=0.5;entryY=0;entryDx=0;entryDy=0;strokeWidth=2;" edge="1" parent="1" source="hkYBtvr36WI65C7XkoZr-1" target="hkYBtvr36WI65C7XkoZr-3">
          <mxGeometry relative="1" as="geometry" />
        </mxCell>
        <mxCell id="hkYBtvr36WI65C7XkoZr-1" value="Выбор мест в самолёте" style="rounded=1;whiteSpace=wrap;html=1;strokeWidth=2;fillColor=#eeeeee;strokeColor=#36393d;fontFamily=Helvetica;fontSize=12;" vertex="1" parent="1">
          <mxGeometry x="-980" y="560" width="240" height="60" as="geometry" />
        </mxCell>
        <mxCell id="hkYBtvr36WI65C7XkoZr-6" style="edgeStyle=orthogonalEdgeStyle;rounded=0;orthogonalLoop=1;jettySize=auto;html=1;exitX=1;exitY=0.5;exitDx=0;exitDy=0;entryX=0;entryY=0.5;entryDx=0;entryDy=0;strokeWidth=2;" edge="1" parent="1" source="hkYBtvr36WI65C7XkoZr-3" target="hkYBtvr36WI65C7XkoZr-5">
          <mxGeometry relative="1" as="geometry" />
        </mxCell>
        <mxCell id="hkYBtvr36WI65C7XkoZr-3" value="Выбор дополнительных опций&lt;br style=&quot;border-color: var(--border-color); font-size: 12px;&quot;&gt;&lt;span style=&quot;font-size: 12px;&quot;&gt;(таких как питание и багаж)&lt;/span&gt;" style="rounded=1;whiteSpace=wrap;html=1;strokeWidth=2;fillColor=#eeeeee;strokeColor=#36393d;fontFamily=Helvetica;fontSize=12;" vertex="1" parent="1">
          <mxGeometry x="-980" y="660" width="240" height="60" as="geometry" />
        </mxCell>
        <mxCell id="hkYBtvr36WI65C7XkoZr-8" style="edgeStyle=orthogonalEdgeStyle;rounded=0;orthogonalLoop=1;jettySize=auto;html=1;exitX=0.5;exitY=1;exitDx=0;exitDy=0;entryX=0.5;entryY=0;entryDx=0;entryDy=0;strokeWidth=2;" edge="1" parent="1" source="hkYBtvr36WI65C7XkoZr-5" target="hkYBtvr36WI65C7XkoZr-7">
          <mxGeometry relative="1" as="geometry" />
        </mxCell>
        <mxCell id="hkYBtvr36WI65C7XkoZr-5" value="Расчёт&lt;span style=&quot;border-color: var(--border-color); font-size: 12px; color: rgb(13, 13, 13); text-align: left;&quot;&gt;&amp;nbsp;общей стоимости&lt;br&gt;с учётом выбранных услуг&lt;/span&gt;" style="rounded=1;whiteSpace=wrap;html=1;strokeWidth=2;fillColor=#eeeeee;strokeColor=#36393d;fontFamily=Helvetica;fontSize=12;labelBackgroundColor=none;" vertex="1" parent="1">
          <mxGeometry x="-440" y="660" width="240" height="60" as="geometry" />
        </mxCell>
        <mxCell id="umYmxheF1SrOAius3o-d-2" style="edgeStyle=orthogonalEdgeStyle;rounded=0;orthogonalLoop=1;jettySize=auto;html=1;exitX=0.5;exitY=1;exitDx=0;exitDy=0;entryX=0.5;entryY=0;entryDx=0;entryDy=0;strokeWidth=2;" edge="1" parent="1" source="hkYBtvr36WI65C7XkoZr-7" target="umYmxheF1SrOAius3o-d-1">
          <mxGeometry relative="1" as="geometry" />
        </mxCell>
        <mxCell id="hkYBtvr36WI65C7XkoZr-7" value="Ввод личных данных пассажира" style="rounded=1;whiteSpace=wrap;html=1;strokeWidth=2;fillColor=#eeeeee;strokeColor=#36393d;fontFamily=Helvetica;fontSize=12;" vertex="1" parent="1">
          <mxGeometry x="-980" y="800" width="240" height="60" as="geometry" />
        </mxCell>
        <mxCell id="umYmxheF1SrOAius3o-d-9" style="rounded=0;orthogonalLoop=1;jettySize=auto;html=1;exitX=0.5;exitY=1;exitDx=0;exitDy=0;entryX=0.25;entryY=0;entryDx=0;entryDy=0;strokeWidth=2;" edge="1" parent="1" source="hkYBtvr36WI65C7XkoZr-10" target="umYmxheF1SrOAius3o-d-8">
          <mxGeometry relative="1" as="geometry" />
        </mxCell>
        <mxCell id="hkYBtvr36WI65C7XkoZr-10" value="Бронирование места" style="rounded=1;whiteSpace=wrap;html=1;strokeWidth=2;fillColor=#eeeeee;strokeColor=#36393d;fontFamily=Helvetica;fontSize=12;" vertex="1" parent="1">
          <mxGeometry x="-570" y="1000" width="240" height="60" as="geometry" />
        </mxCell>
        <mxCell id="umYmxheF1SrOAius3o-d-10" style="rounded=0;orthogonalLoop=1;jettySize=auto;html=1;exitX=0.5;exitY=1;exitDx=0;exitDy=0;entryX=0.75;entryY=0;entryDx=0;entryDy=0;strokeWidth=2;" edge="1" parent="1" source="hkYBtvr36WI65C7XkoZr-11" target="umYmxheF1SrOAius3o-d-8">
          <mxGeometry relative="1" as="geometry" />
        </mxCell>
        <mxCell id="hkYBtvr36WI65C7XkoZr-11" value="Печать билета" style="rounded=1;whiteSpace=wrap;html=1;strokeWidth=2;fillColor=#eeeeee;strokeColor=#36393d;fontFamily=Helvetica;fontSize=12;" vertex="1" parent="1">
          <mxGeometry x="-310" y="1000" width="240" height="60" as="geometry" />
        </mxCell>
        <mxCell id="umYmxheF1SrOAius3o-d-4" style="edgeStyle=orthogonalEdgeStyle;rounded=0;orthogonalLoop=1;jettySize=auto;html=1;exitX=1;exitY=0.5;exitDx=0;exitDy=0;entryX=0.5;entryY=0;entryDx=0;entryDy=0;strokeWidth=2;" edge="1" parent="1" source="umYmxheF1SrOAius3o-d-1" target="umYmxheF1SrOAius3o-d-3">
          <mxGeometry relative="1" as="geometry" />
        </mxCell>
        <mxCell id="umYmxheF1SrOAius3o-d-1" value="Получить оплату от пассажира" style="rounded=1;whiteSpace=wrap;html=1;strokeWidth=2;fillColor=#eeeeee;strokeColor=#36393d;fontFamily=Helvetica;fontSize=12;" vertex="1" parent="1">
          <mxGeometry x="-980" y="900" width="240" height="60" as="geometry" />
        </mxCell>
        <mxCell id="umYmxheF1SrOAius3o-d-6" style="rounded=0;orthogonalLoop=1;jettySize=auto;html=1;exitX=0.25;exitY=1;exitDx=0;exitDy=0;entryX=0.5;entryY=0;entryDx=0;entryDy=0;strokeWidth=2;" edge="1" parent="1" source="umYmxheF1SrOAius3o-d-3" target="hkYBtvr36WI65C7XkoZr-10">
          <mxGeometry relative="1" as="geometry" />
        </mxCell>
        <mxCell id="umYmxheF1SrOAius3o-d-7" style="rounded=0;orthogonalLoop=1;jettySize=auto;html=1;exitX=0.75;exitY=1;exitDx=0;exitDy=0;entryX=0.5;entryY=0;entryDx=0;entryDy=0;strokeWidth=2;" edge="1" parent="1" source="umYmxheF1SrOAius3o-d-3" target="hkYBtvr36WI65C7XkoZr-11">
          <mxGeometry relative="1" as="geometry" />
        </mxCell>
        <mxCell id="umYmxheF1SrOAius3o-d-3" value="" style="rounded=0;whiteSpace=wrap;html=1;fillColor=#000000;strokeColor=none;" vertex="1" parent="1">
          <mxGeometry x="-400" y="950" width="160" height="10" as="geometry" />
        </mxCell>
        <mxCell id="TmjxwN50zuS7-LBtKaZs-2" style="edgeStyle=orthogonalEdgeStyle;rounded=0;orthogonalLoop=1;jettySize=auto;html=1;exitX=0.5;exitY=1;exitDx=0;exitDy=0;entryX=0.5;entryY=0;entryDx=0;entryDy=0;strokeWidth=2;" edge="1" parent="1" source="umYmxheF1SrOAius3o-d-8" target="TmjxwN50zuS7-LBtKaZs-1">
          <mxGeometry relative="1" as="geometry" />
        </mxCell>
        <mxCell id="umYmxheF1SrOAius3o-d-8" value="" style="rounded=0;whiteSpace=wrap;html=1;fillColor=#000000;strokeColor=none;" vertex="1" parent="1">
          <mxGeometry x="-400" y="1100" width="160" height="10" as="geometry" />
        </mxCell>
        <mxCell id="TmjxwN50zuS7-LBtKaZs-1" value="" style="ellipse;html=1;shape=endState;fillColor=#cce5ff;strokeColor=#36393d;" vertex="1" parent="1">
          <mxGeometry x="-335" y="1160" width="30" height="30" as="geometry" />
        </mxCell>
      </root>
    </mxGraphModel>
  </diagram>
  <diagram id="9mubk1-vUvDNeXqdnQqy" name="Activity diagram (authorization system)">
    <mxGraphModel dx="2482" dy="896" grid="1" gridSize="10" guides="1" tooltips="1" connect="1" arrows="1" fold="1" page="1" pageScale="1" pageWidth="1169" pageHeight="827" math="0" shadow="0">
      <root>
        <mxCell id="0" />
        <mxCell id="1" parent="0" />
        <mxCell id="XUd_hja4opgVfdtNO_kK-13" value="" style="group;fillColor=default;" parent="1" vertex="1" connectable="0">
          <mxGeometry x="-1160" y="10" width="1150" height="810" as="geometry" />
        </mxCell>
        <mxCell id="nakuuosyFeXfOhe6Vl8P-53" value="&lt;b&gt;&lt;font style=&quot;font-size: 20px;&quot;&gt;Activity diagram (диаграмма деятельности)&lt;/font&gt;&lt;/b&gt;" style="rounded=0;whiteSpace=wrap;html=1;strokeWidth=2;fillColor=#cce5ff;strokeColor=#36393d;movable=1;resizable=1;rotatable=1;deletable=1;editable=1;locked=0;connectable=1;" parent="XUd_hja4opgVfdtNO_kK-13" vertex="1">
          <mxGeometry width="1150" height="40" as="geometry" />
        </mxCell>
        <mxCell id="XUd_hja4opgVfdtNO_kK-12" value="" style="rounded=0;whiteSpace=wrap;html=1;strokeWidth=2;fillColor=none;movable=1;resizable=1;rotatable=1;deletable=1;editable=1;locked=0;connectable=1;" parent="XUd_hja4opgVfdtNO_kK-13" vertex="1">
          <mxGeometry y="40" width="1150" height="770" as="geometry" />
        </mxCell>
        <mxCell id="nakuuosyFeXfOhe6Vl8P-4" value="&lt;b style=&quot;font-size: 14px;&quot;&gt;Administrator&lt;br style=&quot;font-size: 14px;&quot;&gt;(Администратор)&lt;/b&gt;" style="rounded=0;whiteSpace=wrap;html=1;strokeWidth=2;fillColor=#cce5ff;strokeColor=#36393d;fontSize=14;movable=1;resizable=1;rotatable=1;deletable=1;editable=1;locked=0;connectable=1;" parent="XUd_hja4opgVfdtNO_kK-13" vertex="1">
          <mxGeometry x="30" y="70" width="470" height="41.16" as="geometry" />
        </mxCell>
        <mxCell id="XUd_hja4opgVfdtNO_kK-10" value="" style="rounded=0;whiteSpace=wrap;html=1;strokeWidth=2;fillColor=none;" parent="XUd_hja4opgVfdtNO_kK-13" vertex="1">
          <mxGeometry x="30" y="111.16" width="470" height="668.84" as="geometry" />
        </mxCell>
        <mxCell id="nakuuosyFeXfOhe6Vl8P-5" value="&lt;b style=&quot;font-size: 14px;&quot;&gt;Authorization system&lt;br style=&quot;font-size: 14px;&quot;&gt;(Система авторизации)&lt;/b&gt;" style="rounded=0;whiteSpace=wrap;html=1;strokeWidth=2;fillColor=#cce5ff;strokeColor=#36393d;fontSize=14;movable=1;resizable=1;rotatable=1;deletable=1;editable=1;locked=0;connectable=1;" parent="XUd_hja4opgVfdtNO_kK-13" vertex="1">
          <mxGeometry x="500" y="70" width="620" height="41.16" as="geometry" />
        </mxCell>
        <mxCell id="XUd_hja4opgVfdtNO_kK-11" value="" style="rounded=0;whiteSpace=wrap;html=1;strokeWidth=2;fillColor=none;" parent="XUd_hja4opgVfdtNO_kK-13" vertex="1">
          <mxGeometry x="500" y="111.16" width="620" height="668.84" as="geometry" />
        </mxCell>
        <mxCell id="nakuuosyFeXfOhe6Vl8P-3" value="" style="group" parent="XUd_hja4opgVfdtNO_kK-13" vertex="1" connectable="0">
          <mxGeometry x="790" y="135.58" width="40" height="70" as="geometry" />
        </mxCell>
        <mxCell id="nakuuosyFeXfOhe6Vl8P-1" value="" style="ellipse;html=1;shape=startState;fillColor=#cce5ff;strokeColor=#000000;strokeWidth=2;" parent="nakuuosyFeXfOhe6Vl8P-3" vertex="1">
          <mxGeometry width="40" height="38.888888888888886" as="geometry" />
        </mxCell>
        <mxCell id="nakuuosyFeXfOhe6Vl8P-2" value="" style="edgeStyle=orthogonalEdgeStyle;html=1;verticalAlign=bottom;endArrow=open;endSize=8;strokeColor=#000000;fillColor=#cce5ff;strokeWidth=2;" parent="nakuuosyFeXfOhe6Vl8P-3" source="nakuuosyFeXfOhe6Vl8P-1" edge="1">
          <mxGeometry relative="1" as="geometry">
            <mxPoint x="20" y="77.77777777777777" as="targetPoint" />
            <Array as="points">
              <mxPoint x="20" y="70" />
            </Array>
          </mxGeometry>
        </mxCell>
        <mxCell id="nakuuosyFeXfOhe6Vl8P-6" value="Login and password request&lt;br style=&quot;font-size: 16px;&quot;&gt;&lt;font style=&quot;font-size: 12px;&quot;&gt;(Запрос логина и пароля)&lt;/font&gt;" style="rounded=1;whiteSpace=wrap;html=1;strokeWidth=2;fontSize=16;fillColor=#eeeeee;strokeColor=#36393d;" parent="XUd_hja4opgVfdtNO_kK-13" vertex="1">
          <mxGeometry x="650" y="211.58" width="325" height="60" as="geometry" />
        </mxCell>
        <mxCell id="nakuuosyFeXfOhe6Vl8P-7" value="&lt;font style=&quot;&quot;&gt;&lt;span style=&quot;font-size: 16px;&quot;&gt;Login and password input&lt;/span&gt;&lt;br&gt;&lt;font style=&quot;font-size: 12px;&quot;&gt;(Ввод логина и пароля)&lt;/font&gt;&lt;/font&gt;" style="rounded=1;whiteSpace=wrap;html=1;strokeWidth=2;fillColor=#eeeeee;strokeColor=#36393d;" parent="XUd_hja4opgVfdtNO_kK-13" vertex="1">
          <mxGeometry x="151.5" y="211.58" width="240" height="60" as="geometry" />
        </mxCell>
        <mxCell id="nakuuosyFeXfOhe6Vl8P-8" style="edgeStyle=orthogonalEdgeStyle;rounded=0;orthogonalLoop=1;jettySize=auto;html=1;entryX=1;entryY=0.5;entryDx=0;entryDy=0;strokeWidth=2;" parent="XUd_hja4opgVfdtNO_kK-13" source="nakuuosyFeXfOhe6Vl8P-6" target="nakuuosyFeXfOhe6Vl8P-7" edge="1">
          <mxGeometry relative="1" as="geometry" />
        </mxCell>
        <mxCell id="nakuuosyFeXfOhe6Vl8P-9" value="Pressing the &quot;Login&quot; button&lt;br style=&quot;font-size: 16px;&quot;&gt;&lt;font style=&quot;font-size: 12px;&quot;&gt;(Нажатие на кнопку &quot;Вход&quot;)&lt;/font&gt;" style="rounded=1;whiteSpace=wrap;html=1;strokeWidth=2;fontSize=16;fillColor=#eeeeee;strokeColor=#36393d;" parent="XUd_hja4opgVfdtNO_kK-13" vertex="1">
          <mxGeometry x="655" y="311.58000000000004" width="320" height="50" as="geometry" />
        </mxCell>
        <mxCell id="nakuuosyFeXfOhe6Vl8P-12" style="edgeStyle=orthogonalEdgeStyle;rounded=0;orthogonalLoop=1;jettySize=auto;html=1;entryX=0;entryY=0.5;entryDx=0;entryDy=0;strokeWidth=2;exitX=0;exitY=0.5;exitDx=0;exitDy=0;" parent="XUd_hja4opgVfdtNO_kK-13" source="nakuuosyFeXfOhe6Vl8P-10" target="nakuuosyFeXfOhe6Vl8P-7" edge="1">
          <mxGeometry relative="1" as="geometry">
            <Array as="points">
              <mxPoint x="60" y="337" />
              <mxPoint x="60" y="242" />
            </Array>
          </mxGeometry>
        </mxCell>
        <mxCell id="nakuuosyFeXfOhe6Vl8P-14" style="rounded=0;orthogonalLoop=1;jettySize=auto;html=1;entryX=0;entryY=0.5;entryDx=0;entryDy=0;strokeWidth=2;" parent="XUd_hja4opgVfdtNO_kK-13" source="nakuuosyFeXfOhe6Vl8P-10" target="nakuuosyFeXfOhe6Vl8P-9" edge="1">
          <mxGeometry relative="1" as="geometry" />
        </mxCell>
        <mxCell id="nakuuosyFeXfOhe6Vl8P-10" value="" style="rhombus;whiteSpace=wrap;html=1;strokeWidth=2;fillColor=#eeeeee;strokeColor=#36393d;" parent="XUd_hja4opgVfdtNO_kK-13" vertex="1">
          <mxGeometry x="241.5" y="316.58000000000004" width="60" height="40" as="geometry" />
        </mxCell>
        <mxCell id="nakuuosyFeXfOhe6Vl8P-11" style="edgeStyle=orthogonalEdgeStyle;rounded=0;orthogonalLoop=1;jettySize=auto;html=1;entryX=0.5;entryY=0;entryDx=0;entryDy=0;strokeWidth=2;" parent="XUd_hja4opgVfdtNO_kK-13" source="nakuuosyFeXfOhe6Vl8P-7" target="nakuuosyFeXfOhe6Vl8P-10" edge="1">
          <mxGeometry relative="1" as="geometry" />
        </mxCell>
        <mxCell id="nakuuosyFeXfOhe6Vl8P-15" value="&lt;font style=&quot;font-size: 12px;&quot;&gt;[Login and password entered]&lt;br&gt;(Логин и пароль введены)&lt;/font&gt;" style="text;html=1;align=center;verticalAlign=middle;resizable=0;points=[];autosize=1;" parent="XUd_hja4opgVfdtNO_kK-13" vertex="1">
          <mxGeometry x="271.5" y="283.58000000000004" width="180" height="40" as="geometry" />
        </mxCell>
        <mxCell id="nakuuosyFeXfOhe6Vl8P-16" value="Validating login and password&amp;nbsp;&lt;br style=&quot;font-size: 16px;&quot;&gt;&lt;font style=&quot;font-size: 12px;&quot;&gt;(Проверка логина и пароля)&lt;/font&gt;" style="rounded=1;whiteSpace=wrap;html=1;strokeWidth=2;fontSize=16;fillColor=#eeeeee;strokeColor=#36393d;" parent="XUd_hja4opgVfdtNO_kK-13" vertex="1">
          <mxGeometry x="655.5" y="401.58000000000004" width="320" height="50" as="geometry" />
        </mxCell>
        <mxCell id="nakuuosyFeXfOhe6Vl8P-17" style="edgeStyle=orthogonalEdgeStyle;rounded=0;orthogonalLoop=1;jettySize=auto;html=1;entryX=0.5;entryY=0;entryDx=0;entryDy=0;strokeWidth=2;" parent="XUd_hja4opgVfdtNO_kK-13" source="nakuuosyFeXfOhe6Vl8P-9" target="nakuuosyFeXfOhe6Vl8P-16" edge="1">
          <mxGeometry relative="1" as="geometry" />
        </mxCell>
        <mxCell id="nakuuosyFeXfOhe6Vl8P-18" value="" style="rhombus;whiteSpace=wrap;html=1;strokeWidth=2;fillColor=#eeeeee;strokeColor=#36393d;" parent="XUd_hja4opgVfdtNO_kK-13" vertex="1">
          <mxGeometry x="785.5" y="495.58000000000004" width="60" height="40" as="geometry" />
        </mxCell>
        <mxCell id="nakuuosyFeXfOhe6Vl8P-19" style="edgeStyle=orthogonalEdgeStyle;rounded=0;orthogonalLoop=1;jettySize=auto;html=1;entryX=0.5;entryY=0;entryDx=0;entryDy=0;strokeWidth=2;" parent="XUd_hja4opgVfdtNO_kK-13" source="nakuuosyFeXfOhe6Vl8P-16" target="nakuuosyFeXfOhe6Vl8P-18" edge="1">
          <mxGeometry relative="1" as="geometry" />
        </mxCell>
        <mxCell id="nakuuosyFeXfOhe6Vl8P-20" value="&lt;font style=&quot;&quot;&gt;&lt;span style=&quot;font-size: 16px;&quot;&gt;Dispaying the main admin page&lt;/span&gt;&lt;br&gt;&lt;font style=&quot;font-size: 12px;&quot;&gt;(Отображение главной страницы администратора)&lt;/font&gt;&lt;/font&gt;" style="rounded=1;whiteSpace=wrap;html=1;strokeWidth=2;fillColor=#eeeeee;strokeColor=#36393d;" parent="XUd_hja4opgVfdtNO_kK-13" vertex="1">
          <mxGeometry x="835" y="561.58" width="240" height="60" as="geometry" />
        </mxCell>
        <mxCell id="nakuuosyFeXfOhe6Vl8P-21" style="edgeStyle=orthogonalEdgeStyle;rounded=0;orthogonalLoop=1;jettySize=auto;html=1;entryX=0.5;entryY=0;entryDx=0;entryDy=0;strokeWidth=2;exitX=1;exitY=0.5;exitDx=0;exitDy=0;" parent="XUd_hja4opgVfdtNO_kK-13" source="nakuuosyFeXfOhe6Vl8P-18" target="nakuuosyFeXfOhe6Vl8P-20" edge="1">
          <mxGeometry relative="1" as="geometry" />
        </mxCell>
        <mxCell id="nakuuosyFeXfOhe6Vl8P-22" value="&lt;font style=&quot;&quot;&gt;&lt;span style=&quot;font-size: 16px;&quot;&gt;Dispaying a warning&lt;/span&gt;&lt;br&gt;&lt;font style=&quot;font-size: 12px;&quot;&gt;(Отображение предупреждения)&lt;/font&gt;&lt;/font&gt;" style="rounded=1;whiteSpace=wrap;html=1;strokeWidth=2;fillColor=#eeeeee;strokeColor=#36393d;" parent="XUd_hja4opgVfdtNO_kK-13" vertex="1">
          <mxGeometry x="550" y="561.58" width="240" height="60" as="geometry" />
        </mxCell>
        <mxCell id="nakuuosyFeXfOhe6Vl8P-24" style="edgeStyle=orthogonalEdgeStyle;rounded=0;orthogonalLoop=1;jettySize=auto;html=1;entryX=0.5;entryY=0;entryDx=0;entryDy=0;strokeWidth=2;exitX=0;exitY=0.5;exitDx=0;exitDy=0;" parent="XUd_hja4opgVfdtNO_kK-13" source="nakuuosyFeXfOhe6Vl8P-18" target="nakuuosyFeXfOhe6Vl8P-22" edge="1">
          <mxGeometry relative="1" as="geometry" />
        </mxCell>
        <mxCell id="nakuuosyFeXfOhe6Vl8P-25" value="&lt;font style=&quot;font-size: 12px;&quot;&gt;[Login and password are correct]&lt;br&gt;(Логин и пароль корректны)&lt;/font&gt;" style="text;html=1;align=center;verticalAlign=middle;resizable=0;points=[];autosize=1;" parent="XUd_hja4opgVfdtNO_kK-13" vertex="1">
          <mxGeometry x="835" y="471.58000000000004" width="200" height="40" as="geometry" />
        </mxCell>
        <mxCell id="nakuuosyFeXfOhe6Vl8P-26" value="&lt;font style=&quot;font-size: 12px;&quot;&gt;[Login and password are not entered]&lt;br&gt;(Логин и пароль не введены)&lt;/font&gt;" style="text;html=1;align=center;verticalAlign=middle;resizable=0;points=[];autosize=1;" parent="XUd_hja4opgVfdtNO_kK-13" vertex="1">
          <mxGeometry x="50" y="283.58000000000004" width="220" height="40" as="geometry" />
        </mxCell>
        <mxCell id="nakuuosyFeXfOhe6Vl8P-27" value="&lt;font style=&quot;font-size: 12px;&quot;&gt;&lt;span style=&quot;color: rgb(0 , 0 , 0) ; font-family: &amp;quot;helvetica&amp;quot; ; font-style: normal ; font-weight: 400 ; letter-spacing: normal ; text-indent: 0px ; text-transform: none ; word-spacing: 0px ; background-color: rgb(248 , 249 , 250)&quot;&gt;[Login and password are not correct]&lt;/span&gt;&lt;br style=&quot;color: rgb(0 , 0 , 0) ; font-family: &amp;quot;helvetica&amp;quot; ; font-style: normal ; font-weight: 400 ; letter-spacing: normal ; text-indent: 0px ; text-transform: none ; word-spacing: 0px ; background-color: rgb(248 , 249 , 250)&quot;&gt;&lt;span style=&quot;color: rgb(0 , 0 , 0) ; font-family: &amp;quot;helvetica&amp;quot; ; font-style: normal ; font-weight: 400 ; letter-spacing: normal ; text-indent: 0px ; text-transform: none ; word-spacing: 0px ; background-color: rgb(248 , 249 , 250)&quot;&gt;(Логин и пароль не корректны)&lt;/span&gt;&lt;/font&gt;" style="text;whiteSpace=wrap;html=1;align=center;" parent="XUd_hja4opgVfdtNO_kK-13" vertex="1">
          <mxGeometry x="579" y="471.58000000000004" width="206.5" height="40" as="geometry" />
        </mxCell>
        <mxCell id="nakuuosyFeXfOhe6Vl8P-28" value="&lt;font style=&quot;&quot;&gt;&lt;span style=&quot;font-size: 16px;&quot;&gt;Choosing an action&lt;/span&gt;&lt;br&gt;&lt;font style=&quot;font-size: 12px;&quot;&gt;(Выбор действия)&lt;/font&gt;&lt;/font&gt;" style="rounded=1;whiteSpace=wrap;html=1;strokeWidth=2;fillColor=#eeeeee;strokeColor=#36393d;" parent="XUd_hja4opgVfdtNO_kK-13" vertex="1">
          <mxGeometry x="150.5" y="561.58" width="240" height="60" as="geometry" />
        </mxCell>
        <mxCell id="nakuuosyFeXfOhe6Vl8P-29" style="edgeStyle=orthogonalEdgeStyle;rounded=0;orthogonalLoop=1;jettySize=auto;html=1;entryX=1;entryY=0.5;entryDx=0;entryDy=0;strokeWidth=2;exitX=0;exitY=0.5;exitDx=0;exitDy=0;" parent="XUd_hja4opgVfdtNO_kK-13" source="nakuuosyFeXfOhe6Vl8P-22" target="nakuuosyFeXfOhe6Vl8P-28" edge="1">
          <mxGeometry relative="1" as="geometry">
            <mxPoint x="521.5" y="591.5799999999999" as="sourcePoint" />
          </mxGeometry>
        </mxCell>
        <mxCell id="nakuuosyFeXfOhe6Vl8P-32" style="edgeStyle=orthogonalEdgeStyle;rounded=0;orthogonalLoop=1;jettySize=auto;html=1;strokeWidth=2;" parent="XUd_hja4opgVfdtNO_kK-13" source="nakuuosyFeXfOhe6Vl8P-30" edge="1">
          <mxGeometry relative="1" as="geometry">
            <mxPoint x="810" y="180" as="targetPoint" />
            <Array as="points">
              <mxPoint x="50" y="682" />
              <mxPoint x="50" y="180" />
            </Array>
          </mxGeometry>
        </mxCell>
        <mxCell id="nakuuosyFeXfOhe6Vl8P-30" value="" style="rhombus;whiteSpace=wrap;html=1;strokeWidth=2;fillColor=#eeeeee;strokeColor=#36393d;" parent="XUd_hja4opgVfdtNO_kK-13" vertex="1">
          <mxGeometry x="240.5" y="661.58" width="60" height="40" as="geometry" />
        </mxCell>
        <mxCell id="nakuuosyFeXfOhe6Vl8P-31" style="edgeStyle=orthogonalEdgeStyle;rounded=0;orthogonalLoop=1;jettySize=auto;html=1;entryX=0.5;entryY=0;entryDx=0;entryDy=0;strokeWidth=2;exitX=0.5;exitY=1;exitDx=0;exitDy=0;" parent="XUd_hja4opgVfdtNO_kK-13" source="nakuuosyFeXfOhe6Vl8P-28" target="nakuuosyFeXfOhe6Vl8P-30" edge="1">
          <mxGeometry relative="1" as="geometry">
            <mxPoint x="266.5" y="711.58" as="sourcePoint" />
          </mxGeometry>
        </mxCell>
        <mxCell id="nakuuosyFeXfOhe6Vl8P-33" value="" style="ellipse;html=1;shape=endState;fillColor=#cce5ff;strokeColor=#36393d;" parent="XUd_hja4opgVfdtNO_kK-13" vertex="1">
          <mxGeometry x="579" y="666.58" width="30" height="30" as="geometry" />
        </mxCell>
        <mxCell id="nakuuosyFeXfOhe6Vl8P-34" style="rounded=0;orthogonalLoop=1;jettySize=auto;html=1;entryX=0;entryY=0.5;entryDx=0;entryDy=0;strokeWidth=2;" parent="XUd_hja4opgVfdtNO_kK-13" source="nakuuosyFeXfOhe6Vl8P-30" target="nakuuosyFeXfOhe6Vl8P-33" edge="1">
          <mxGeometry relative="1" as="geometry">
            <mxPoint x="327.5" y="751.58" as="targetPoint" />
          </mxGeometry>
        </mxCell>
        <mxCell id="nakuuosyFeXfOhe6Vl8P-35" value="" style="ellipse;html=1;shape=endState;fillColor=#cce5ff;strokeColor=#36393d;" parent="XUd_hja4opgVfdtNO_kK-13" vertex="1">
          <mxGeometry x="940" y="661.58" width="30" height="30" as="geometry" />
        </mxCell>
        <mxCell id="XUd_hja4opgVfdtNO_kK-5" style="edgeStyle=orthogonalEdgeStyle;rounded=0;orthogonalLoop=1;jettySize=auto;html=1;exitX=0.5;exitY=1;exitDx=0;exitDy=0;entryX=0.5;entryY=0;entryDx=0;entryDy=0;strokeWidth=2;" parent="XUd_hja4opgVfdtNO_kK-13" source="nakuuosyFeXfOhe6Vl8P-20" target="nakuuosyFeXfOhe6Vl8P-35" edge="1">
          <mxGeometry relative="1" as="geometry" />
        </mxCell>
        <mxCell id="nakuuosyFeXfOhe6Vl8P-39" value="" style="shape=note2;boundedLbl=1;whiteSpace=wrap;html=1;size=25;verticalAlign=top;align=center;strokeWidth=2;fillColor=#eeeeee;strokeColor=#36393d;" parent="XUd_hja4opgVfdtNO_kK-13" vertex="1">
          <mxGeometry x="650" y="656.58" width="105" height="50" as="geometry" />
        </mxCell>
        <mxCell id="nakuuosyFeXfOhe6Vl8P-40" value="Unuccess &#xa;(Неуспех)" style="resizeWidth=1;part=1;strokeColor=none;fillColor=none;align=left;spacingLeft=5;fontSize=14;verticalAlign=middle;" parent="nakuuosyFeXfOhe6Vl8P-39" vertex="1">
          <mxGeometry width="75.6" height="30" relative="1" as="geometry" />
        </mxCell>
        <mxCell id="nakuuosyFeXfOhe6Vl8P-42" style="edgeStyle=orthogonalEdgeStyle;rounded=0;orthogonalLoop=1;jettySize=auto;html=1;strokeWidth=2;entryX=0;entryY=0.5;entryDx=0;entryDy=0;entryPerimeter=0;dashed=1;startArrow=none;startFill=0;endArrow=none;endFill=0;" parent="XUd_hja4opgVfdtNO_kK-13" source="nakuuosyFeXfOhe6Vl8P-33" target="nakuuosyFeXfOhe6Vl8P-39" edge="1">
          <mxGeometry relative="1" as="geometry">
            <mxPoint x="634" y="751.58" as="targetPoint" />
          </mxGeometry>
        </mxCell>
        <mxCell id="nakuuosyFeXfOhe6Vl8P-43" value="" style="shape=note2;boundedLbl=1;whiteSpace=wrap;html=1;size=25;verticalAlign=top;align=center;strokeWidth=2;fillColor=#eeeeee;strokeColor=#36393d;" parent="XUd_hja4opgVfdtNO_kK-13" vertex="1">
          <mxGeometry x="1010" y="651.58" width="100" height="50" as="geometry" />
        </mxCell>
        <mxCell id="nakuuosyFeXfOhe6Vl8P-44" value="Success &#xa;(Успех)" style="resizeWidth=1;part=1;strokeColor=none;fillColor=none;align=center;spacingLeft=5;fontSize=14;" parent="nakuuosyFeXfOhe6Vl8P-43" vertex="1">
          <mxGeometry width="70" height="30" relative="1" as="geometry" />
        </mxCell>
        <mxCell id="nakuuosyFeXfOhe6Vl8P-45" style="rounded=0;orthogonalLoop=1;jettySize=auto;html=1;strokeWidth=2;entryX=0;entryY=0.5;entryDx=0;entryDy=0;entryPerimeter=0;dashed=1;startArrow=none;startFill=0;endArrow=none;endFill=0;exitX=1;exitY=0.5;exitDx=0;exitDy=0;" parent="XUd_hja4opgVfdtNO_kK-13" source="nakuuosyFeXfOhe6Vl8P-35" target="nakuuosyFeXfOhe6Vl8P-43" edge="1">
          <mxGeometry relative="1" as="geometry">
            <mxPoint x="992.5" y="681.5300000000001" as="sourcePoint" />
            <mxPoint x="1027.5" y="681.5300000000001" as="targetPoint" />
          </mxGeometry>
        </mxCell>
        <mxCell id="nakuuosyFeXfOhe6Vl8P-51" value="&lt;font style=&quot;font-size: 12px;&quot;&gt;[Denial of login]&lt;br&gt;(Отказ от входа)&lt;/font&gt;" style="text;html=1;align=center;verticalAlign=middle;resizable=0;points=[];autosize=1;" parent="XUd_hja4opgVfdtNO_kK-13" vertex="1">
          <mxGeometry x="300.5" y="641.58" width="120" height="40" as="geometry" />
        </mxCell>
        <mxCell id="nakuuosyFeXfOhe6Vl8P-52" value="&lt;font style=&quot;font-size: 12px;&quot;&gt;[Log in again]&lt;br&gt;(Войти ещё раз)&lt;/font&gt;" style="text;html=1;align=center;verticalAlign=middle;resizable=0;points=[];autosize=1;" parent="XUd_hja4opgVfdtNO_kK-13" vertex="1">
          <mxGeometry x="121.5" y="641.58" width="120" height="40" as="geometry" />
        </mxCell>
      </root>
    </mxGraphModel>
  </diagram>
</mxfile>
